<svg xmlns="http://www.w3.org/2000/svg" viewBox="0 0 247.33 204.27"><defs><style>.cls-1,.cls-3{opacity:0.5;}.cls-2,.cls-3{fill:#231f20;}.cls-4{fill:#fff;}</style></defs><title>Asset 1</title><g id="Layer_2" data-name="Layer 2"><g id="Layer_1-2" data-name="Layer 1"><g class="cls-1"><path class="cls-2" d="M30.74,151.1a31,31,0,0,1,.06-4.26,7.78,7.78,0,0,1,.61-2.84,2,2,0,0,1,1.21-1,1.89,1.89,0,0,0,.57-.27,1.38,1.38,0,0,0,.34-.48,3.86,3.86,0,0,0,.37-1.79,3.93,3.93,0,0,0-.37-1.76c-.33-.65-.74-.94-1.24-.87s-1,.56-1.44,1.46a13.78,13.78,0,0,0-1.07,4.1,29.25,29.25,0,0,0-.17,5.73m-9.93,40.55a26.3,26.3,0,0,1,.59,3,6,6,0,0,1,0,1.54,7.14,7.14,0,0,1-.67,1.76l.83,1.64L24.28,190l-.83-1.65c-.12.2-.25.47-.42.8a3.24,3.24,0,0,1-.62.92.47.47,0,0,1-.49.08,1,1,0,0,1-.44-.49,9.21,9.21,0,0,1-.48-1.58l-2-7.9,4.71-9.29,3.53,3.58a8.35,8.35,0,0,1,1.29,1.49,2.77,2.77,0,0,1,.2,1.47,4.07,4.07,0,0,1-.49,1.35c-.14.29-.28.59-.42.91l.83,1.64,4.63-9.13-.83-1.64-.21.41c-.34.67-.7,1-1.09,1.05s-1-.34-1.76-1.09L13.82,156.12l-1.52,3Zm-5.23-27.77,7.94,7.77-4,7.92ZM29.6,148.24l-1.87-3.69-.7,1.37a32,32,0,0,1-.61,3.55,20.11,20.11,0,0,1-1,2.86l.82,1.62,1.61-3.18,5.84,11.52a8.8,8.8,0,0,1,.83,2.09,4.56,4.56,0,0,1,.05,1.52,5.55,5.55,0,0,1-.63,1.69l-.4.79L34.4,170l4.82-9.51-.84-1.64-.3.61a5.86,5.86,0,0,1-.79,1.28.7.7,0,0,1-.57.24.9.9,0,0,1-.57-.33,8.07,8.07,0,0,1-.86-1.47l-4.57-9m17.22-13a19.23,19.23,0,0,1-.48,3.19,11.9,11.9,0,0,1-.9,2.54c-.79,1.55-1.79,2.22-3,2-1.41-.23-2.77-1.62-4.07-4.19a19.43,19.43,0,0,1-1.77-5,16.77,16.77,0,0,1-.3-4.82,10.84,10.84,0,0,1,1-3.82,3.35,3.35,0,0,1,1.18-1.41,1.58,1.58,0,0,1,1.33-.18,5.36,5.36,0,0,1,1.17.75,3.07,3.07,0,0,0,.82.56,1,1,0,0,0,.62-.07,1.13,1.13,0,0,0,.41-.47,3.6,3.6,0,0,0,.32-1.61,4.2,4.2,0,0,0-.45-1.89A2.21,2.21,0,0,0,41,121.59q-1.9.47-3.51,3.63a19,19,0,0,0-1.86,6.16,23.92,23.92,0,0,0,.08,6.86,20.8,20.8,0,0,0,2,6.28q2.14,4.24,4.91,4.5c1.84.18,3.39-1,4.67-3.51q2.45-4.83,1.72-13.19l-1.12.16c.09,2.33.1,3.91,0,4.74m-7.07-30.63,10.06,19.84a21.81,21.81,0,0,1,1.35,3,2.67,2.67,0,0,1,.11,1.16,7.68,7.68,0,0,1-.81,2.3l-.29.57.83,1.64L57,125.53l-.83-1.63-.39.75a6.25,6.25,0,0,1-.94,1.52.46.46,0,0,1-.59,0,3.94,3.94,0,0,1-.83-1.28l-5-9.78a40.82,40.82,0,0,1,.52-5.78,14.48,14.48,0,0,1,1.2-3.95c.45-.89.94-1.4,1.47-1.52a1.49,1.49,0,0,1,1.49.68,19.45,19.45,0,0,1,1.53,2.72L58,114a12.27,12.27,0,0,1,1,2.33,3.51,3.51,0,0,1,.06,1.36,7.9,7.9,0,0,1-.78,2l-.36.7.84,1.64,4.81-9.5-.83-1.65a7.87,7.87,0,0,1-1.23,2,.51.51,0,0,1-.68.07,5.58,5.58,0,0,1-1.06-1.66l-4.86-9.58c-.76-1.5-1.67-2.24-2.73-2.23s-2,.86-2.85,2.51A16.43,16.43,0,0,0,48,106.38a43,43,0,0,0-.62,6.65l-6.54-12.91-.73,1.44a24.07,24.07,0,0,1-.52,3.12,31.53,31.53,0,0,1-1.11,3.37l.85,1.68Zm12-27.95a4.9,4.9,0,0,0,.49,2.21c.31.63.69,1,1.12,1s.81-.26,1.11-.85A4.62,4.62,0,0,0,56,78.81a4.91,4.91,0,0,0-.49-2.22c-.32-.63-.69-1-1.12-1s-.8.27-1.1.85a4.62,4.62,0,0,0-.43,2.17M58.67,90l5.83,11.5a11.64,11.64,0,0,1,.94,2.19,3.78,3.78,0,0,1,0,1.26,6.92,6.92,0,0,1-.72,1.89l-.38.75.83,1.64L70,99.85l-.83-1.64-.44.87a3.92,3.92,0,0,1-.83,1.25.51.51,0,0,1-.61,0,2.62,2.62,0,0,1-.74-1L58.58,83.68,57.91,85a33.23,33.23,0,0,1-.65,3.47,25.81,25.81,0,0,1-1,3.1l.82,1.62Zm3.14-8.48a2.52,2.52,0,0,1,.68-.92.79.79,0,0,1,.69-.19,3.2,3.2,0,0,1,1.17.69l10.55,9L76,87.91,71.61,67.48a21.32,21.32,0,0,1-.46-2.64,5.6,5.6,0,0,1,.09-1.39,5.85,5.85,0,0,1,.51-1.51l-.83-1.65-3.68,7.27.83,1.64.44-.89c.33-.63.6-1,.82-1s.42.08.58.41a10,10,0,0,1,.6,2l3.57,15.18-7.76-6.91a4.72,4.72,0,0,1-1-1.18A2.05,2.05,0,0,1,65.1,76a2.46,2.46,0,0,1,.09-.92,10.32,10.32,0,0,1,.62-1.39l.26-.51-.83-1.64L61,79.91Zm24.29-18a11.69,11.69,0,0,1-1,3.49,4.08,4.08,0,0,1-2,2.12,2.55,2.55,0,0,1-2.52-.7,10.85,10.85,0,0,1-2.64-3.58c-.16-.32-.39-.81-.69-1.49l6.59-13a12.62,12.62,0,0,0-1.46-2.28,4.66,4.66,0,0,0-2.27-1.54,2.5,2.5,0,0,0-2.24.5,7.78,7.78,0,0,0-2.07,2.76A17.5,17.5,0,0,0,74,55.72a23.8,23.8,0,0,0,.15,6.58,22,22,0,0,0,2.11,6.4,9.6,9.6,0,0,0,3.18,4,3.52,3.52,0,0,0,3.47.18,7.12,7.12,0,0,0,2.92-3.42,13.82,13.82,0,0,0,1.13-3,21.6,21.6,0,0,0,.5-3.78,45.28,45.28,0,0,0,0-5.29l-1.11.16a35.81,35.81,0,0,1-.24,6m-9.67-2.25a19.57,19.57,0,0,1-.74-3.78,12.72,12.72,0,0,1,.14-3.09,9.47,9.47,0,0,1,.84-2.68A3.7,3.7,0,0,1,78,50.13a1.4,1.4,0,0,1,1.42-.06,5.9,5.9,0,0,1,1.74,1.87ZM88.05,28.84a3.43,3.43,0,0,0-1.73.91,7.71,7.71,0,0,0-1.47,2.12,14.14,14.14,0,0,0-1.47,5.93A10.63,10.63,0,0,0,84.27,43a2.89,2.89,0,0,0,2,1.81c.79.12,1.82-.38,3.1-1.5l3-2.61c.87-.78,1.55-1.15,2-1.09a1.68,1.68,0,0,1,1.18,1,6.48,6.48,0,0,1,.5,3.06,8.33,8.33,0,0,1-.87,3.54,4.82,4.82,0,0,1-3.12,2.83,5.71,5.71,0,0,1-3.63-.82l-.48,2.36,4.4,4.09L93,54.41l-.52-1.79q2.08-.33,3.64-3.42a14.56,14.56,0,0,0,1.39-4.3,15.14,15.14,0,0,0,.12-4.44,10.82,10.82,0,0,0-1-3.56A3.21,3.21,0,0,0,94.58,35c-.82-.14-1.93.42-3.35,1.68L88.74,38.9c-1,.89-1.76,1.33-2.19,1.31s-.81-.31-1.11-.91A5.19,5.19,0,0,1,85,36.73a7.52,7.52,0,0,1,.79-3,4,4,0,0,1,2.54-2.25,3.7,3.7,0,0,1,3.33,1l.54-2.24-3.86-4.32-.66,1.29Z"/></g><polygon class="cls-3" points="22.63 202.04 23.75 204.27 102.45 49.03 101.32 46.81 22.63 202.04"/><g class="cls-1"><path class="cls-2" d="M88.8,178.38l-3.93-15.69,7.94,7.77Zm12.78-5.59c-.39,0-1-.34-1.75-1.09L84.24,156.91l-1.53,3,7.38,30.56a24.47,24.47,0,0,1,.6,3,6,6,0,0,1,0,1.54,6.67,6.67,0,0,1-.66,1.76l.83,1.64,3.89-7.67-.83-1.64c-.12.2-.26.46-.43.79a3,3,0,0,1-.61.92.47.47,0,0,1-.49.08.91.91,0,0,1-.44-.48,9.79,9.79,0,0,1-.49-1.59l-2-7.89,4.72-9.3,3.53,3.58a8.52,8.52,0,0,1,1.28,1.5,2.66,2.66,0,0,1,.2,1.47,4.15,4.15,0,0,1-.48,1.35,8.56,8.56,0,0,0-.42.91l.83,1.63,4.63-9.12-.84-1.64-.2.4c-.34.68-.71,1-1.1,1.06"/><path class="cls-2" d="M119.28,95a4.48,4.48,0,0,0,.43-2.17,5,5,0,0,0-.49-2.22c-.32-.63-.7-1-1.13-1s-.8.27-1.09.85a4.74,4.74,0,0,0-.44,2.17,5,5,0,0,0,.49,2.21c.32.63.7,1,1.13,1s.81-.26,1.1-.85"/><path class="cls-2" d="M139.3,92.84a15.83,15.83,0,0,1,.42,4.78,9.85,9.85,0,0,1-1,3.66c-.82,1.62-1.78,2.27-2.89,2s-2.55-1.88-3.91-4.56a20.12,20.12,0,0,1-2.29-8.21,10.52,10.52,0,0,1,.91-5.3,3.56,3.56,0,0,1,1.89-2,2.18,2.18,0,0,1,2.21.6,11.78,11.78,0,0,1,2.72,3.74,22.08,22.08,0,0,1,1.91,5.28M136,80a3.21,3.21,0,0,0-3.34-.36,7.46,7.46,0,0,0-3,3.49,18.42,18.42,0,0,0-1.77,6,23.12,23.12,0,0,0,.13,6.74,21.57,21.57,0,0,0,2,6.32c1.35,2.66,2.89,4.22,4.65,4.7s3.37-.77,4.88-3.73a18.59,18.59,0,0,0,1.83-6,23,23,0,0,0-.16-6.66,22,22,0,0,0-2.05-6.39A10.32,10.32,0,0,0,136,80"/><path class="cls-2" d="M131.56,114.39a.51.51,0,0,1-.61,0,2.45,2.45,0,0,1-.74-1l-7.94-15.66-.68,1.34a31,31,0,0,1-.64,3.47,25.81,25.81,0,0,1-1,3.1l.82,1.62,1.61-3.18,5.83,11.5a10.74,10.74,0,0,1,.93,2.19,3.53,3.53,0,0,1,0,1.26,7.28,7.28,0,0,1-.72,1.89l-.39.75.83,1.64,4.78-9.41-.84-1.64-.43.86a4.06,4.06,0,0,1-.83,1.26"/><path class="cls-2" d="M113.46,150a.58.58,0,0,1-.72-.11,6.47,6.47,0,0,1-1.09-1.72l-7.39-14.57-3.38,7.26.83,1.64.68-1.34a3.3,3.3,0,0,1,1-1.34.6.6,0,0,1,.73,0,6.16,6.16,0,0,1,1.06,1.69l4.61,9.1a38.12,38.12,0,0,1-.62,6.23,16.42,16.42,0,0,1-1.26,4.17,3.34,3.34,0,0,1-1.33,1.55,1.27,1.27,0,0,1-1.44-.19,6.68,6.68,0,0,1-1.56-2.2l-6.37-12.58-3.38,7.26.83,1.64.85-1.69a2.14,2.14,0,0,1,.8-1,.62.62,0,0,1,.72.08,5.26,5.26,0,0,1,1,1.47l4.51,8.89a7,7,0,0,0,1.46,2,2.56,2.56,0,0,0,1.62.75,2.3,2.3,0,0,0,1.56-.63,6.79,6.79,0,0,0,1.47-2.08,18.28,18.28,0,0,0,1.52-4.62,50.81,50.81,0,0,0,.74-7.33l1.83,3.61,2.92-6.43-.83-1.64-.29.57a4.61,4.61,0,0,1-1,1.51"/><path class="cls-2" d="M121.33,133.51a13.49,13.49,0,0,1-1,3.55,2.77,2.77,0,0,1-1.69,1.55,2.49,2.49,0,0,1-2.28-.69,10.52,10.52,0,0,1-2.41-3.35,19.46,19.46,0,0,1-1.76-5,16.39,16.39,0,0,1-.28-4.79,10.76,10.76,0,0,1,1-3.88A4.14,4.14,0,0,1,114.6,119a1.79,1.79,0,0,1,1.81-.09,4.57,4.57,0,0,1,1.6,2l3.74,7.38a31,31,0,0,1-.42,5.16m5.22-8.45-.4.79c-.43.85-.77,1.32-1,1.42s-.53,0-.85-.41a19.27,19.27,0,0,1-1-1.92l-12-23.69-.7,1.38c-.25,1.6-.48,2.86-.72,3.78a19.36,19.36,0,0,1-.93,2.75l.84,1.66,1.57-3.09,4.36,8.62a3.46,3.46,0,0,0-2.35.78,7.56,7.56,0,0,0-2,2.59,15.59,15.59,0,0,0-1.49,5.45,24.3,24.3,0,0,0,.27,6.7,22.4,22.4,0,0,0,2.06,6.39q2,4,4.58,4.64t4.24-2.68a14.6,14.6,0,0,0,1.26-4,34.14,34.14,0,0,0,.47-6l1.58,3.1,3.07-6.69Z"/></g><polygon class="cls-3" points="92.64 202.04 93.77 204.27 146.96 99.35 145.83 97.12 92.64 202.04"/><g class="cls-1"><path class="cls-2" d="M149.12,172.51l.45-.88a4,4,0,0,1,1-1.43.53.53,0,0,1,.7.05,6.2,6.2,0,0,1,1.11,1.77l9,17.79a10.53,10.53,0,0,1,.95,2.35,4.68,4.68,0,0,1,0,1.63,7.69,7.69,0,0,1-.8,2.16l-.26.52.83,1.64,4.58-9-.83-1.64-.31.59a4,4,0,0,1-1.06,1.53.68.68,0,0,1-.78-.07,5.57,5.57,0,0,1-1.13-1.75l-9.79-19.29L169.23,184l.94-1.84-8.11-32.74,10.16,20c.16.3.35.75.59,1.34a3.48,3.48,0,0,1,.22,1.07,4.59,4.59,0,0,1-.1,1.24,7.57,7.57,0,0,1-.62,1.52l-.35.7.83,1.64,5-9.8-.83-1.64-.34.67a3.71,3.71,0,0,1-1,1.4.59.59,0,0,1-.71-.13,8.52,8.52,0,0,1-1.22-2l-9.11-18a8.09,8.09,0,0,1-.78-2,4,4,0,0,1,0-1.41,6.68,6.68,0,0,1,.7-1.82l.34-.66L164,140l-4,7.82,7.2,29-14.78-14-4.11,8.1Zm23.26-30.82a23.11,23.11,0,0,0,.12,6.74,21.64,21.64,0,0,0,2,6.33q2,4,4.65,4.7c1.75.47,3.38-.77,4.88-3.74a18,18,0,0,0,1.83-6,22.66,22.66,0,0,0-.15-6.66,21.6,21.6,0,0,0-2.06-6.38,10.37,10.37,0,0,0-3.21-4.08,3.23,3.23,0,0,0-3.35-.36,7.44,7.44,0,0,0-3,3.49,18,18,0,0,0-1.77,6m4.54-5.88a2.21,2.21,0,0,1,2.22.6,12,12,0,0,1,2.72,3.75,22.45,22.45,0,0,1,1.91,5.27,16.56,16.56,0,0,1,.42,4.78,9.85,9.85,0,0,1-1,3.66c-.82,1.62-1.79,2.28-2.9,2s-2.54-1.89-3.9-4.57a19.92,19.92,0,0,1-2.29-8.2,10.48,10.48,0,0,1,.9-5.31,3.66,3.66,0,0,1,1.89-1.95M183.38,124,189,135.19a16.76,16.76,0,0,1,1,2.25,3.73,3.73,0,0,1,.09,1.58,8.35,8.35,0,0,1-.83,2.11l-.23.46.83,1.64,4.81-9.48-.83-1.64-.27.53a5.06,5.06,0,0,1-1,1.57.59.59,0,0,1-.73-.07,7,7,0,0,1-1.14-1.82l-4.56-9a32.23,32.23,0,0,1,.45-5.66,14.15,14.15,0,0,1,1.2-4,3,3,0,0,1,1.32-1.53,1.18,1.18,0,0,1,1.29.23,10.44,10.44,0,0,1,1.74,2.75l3.64,7.19a9.82,9.82,0,0,1,.9,2.2,3.82,3.82,0,0,1,0,1.43A8,8,0,0,1,196,128l-.26.51.83,1.64,4.79-9.45-.83-1.64a9,9,0,0,1-1.25,2.07.5.5,0,0,1-.66,0,6.32,6.32,0,0,1-1.11-1.77l-4.36-8.6a15.23,15.23,0,0,0-1.18-2,2.76,2.76,0,0,0-1.55-1.12,2,2,0,0,0-1.69.42,5.86,5.86,0,0,0-1.62,2.13,16,16,0,0,0-1.38,4.25,47.24,47.24,0,0,0-.61,7.08l-1.88-3.71-.67,1.32a33.77,33.77,0,0,1-.59,3.5,23.19,23.19,0,0,1-1,2.92l.82,1.62Zm9.85-30.77a15.64,15.64,0,0,1,.25,3.57,15.23,15.23,0,0,1-.68,3.65l.83,1.65,1.63-3.22,6.09,12a8.68,8.68,0,0,0,1.79,2.71,1.41,1.41,0,0,0,1.58,0,4,4,0,0,0,1.62-1.87,18,18,0,0,0,1.59-6.61l-1-1.9a14.83,14.83,0,0,1-1.11,5.52,1.73,1.73,0,0,1-.89.92.89.89,0,0,1-1-.2,7.4,7.4,0,0,1-1.22-1.9l-6-11.78,2.76-5.46-1-2-2.76,5.46-3.37-6.64-.66,1.3a28.89,28.89,0,0,1,1.42,4.73M203.66,84l5.84,11.51a9.67,9.67,0,0,1,.83,2.1,5.16,5.16,0,0,1,0,1.52,5.94,5.94,0,0,1-.64,1.69l-.4.79.83,1.64L215,93.78l-.83-1.64-.31.61a6,6,0,0,1-.78,1.28.72.72,0,0,1-.57.24.9.9,0,0,1-.57-.33,8.53,8.53,0,0,1-.87-1.47l-4.56-9a31,31,0,0,1,.06-4.26,7.78,7.78,0,0,1,.61-2.84,2,2,0,0,1,1.21-1,1.89,1.89,0,0,0,.57-.27,1.32,1.32,0,0,0,.34-.47,3.93,3.93,0,0,0,.37-1.8,4.07,4.07,0,0,0-.36-1.76c-.33-.65-.75-.94-1.25-.87s-1,.56-1.43,1.47a13,13,0,0,0-1.07,4.1,28.35,28.35,0,0,0-.18,5.72l-1.87-3.69-.69,1.38a31.7,31.7,0,0,1-.62,3.55,17.77,17.77,0,0,1-1,2.85l.82,1.63Zm19.82-11.52a11.78,11.78,0,0,1-1,3.49,4,4,0,0,1-2,2.11,2.56,2.56,0,0,1-2.52-.69,11,11,0,0,1-2.64-3.59c-.16-.31-.39-.81-.69-1.49l6.58-13a13.05,13.05,0,0,0-1.45-2.28,4.73,4.73,0,0,0-2.27-1.54,2.57,2.57,0,0,0-2.25.5,7.73,7.73,0,0,0-2.06,2.77,17.6,17.6,0,0,0-1.73,5.92,23.82,23.82,0,0,0,.16,6.58,21.63,21.63,0,0,0,2.11,6.39,9.39,9.39,0,0,0,3.18,4,3.52,3.52,0,0,0,3.47.19,7.16,7.16,0,0,0,2.92-3.43,13.45,13.45,0,0,0,1.13-3,22.47,22.47,0,0,0,.5-3.77,45.45,45.45,0,0,0,0-5.3l-1.11.16a37.05,37.05,0,0,1-.24,6m-9.68-2.25a20.32,20.32,0,0,1-.73-3.79,12.77,12.77,0,0,1,.14-3.09,9.3,9.3,0,0,1,.84-2.67,3.64,3.64,0,0,1,1.32-1.58,1.42,1.42,0,0,1,1.42-.07A6,6,0,0,1,218.53,61Zm12.4-18.95A27.44,27.44,0,0,0,225,56.49a15.19,15.19,0,0,0,.07,3.66A9.57,9.57,0,0,0,226,63q1,2,2.55,1.86c1-.08,2-1,2.83-2.66a17.66,17.66,0,0,0,1.45-4.34,42.7,42.7,0,0,0,.71-6.57,2.44,2.44,0,0,0,1.28,1.05A1.44,1.44,0,0,0,236.1,52a5.28,5.28,0,0,0,1.31-1.8A16.58,16.58,0,0,0,238.56,47l-.86-1.7a12.15,12.15,0,0,1-.81,2.43c-.28.54-.57.84-.88.89s-.65-.12-1-.54a21.81,21.81,0,0,1-1.11-2l-3.8-7.51A8.41,8.41,0,0,0,228,35.5a2,2,0,0,0-2.37.25A9,9,0,0,0,223.18,39a19.73,19.73,0,0,0-1.81,5.18A17.37,17.37,0,0,0,221,49a9.32,9.32,0,0,0,.83,3.43c.29.59.61.9.93,1s.62-.18.87-.67a4.68,4.68,0,0,0,0-3.47c-.37-1.19-.57-1.89-.62-2.1a7.85,7.85,0,0,1-.18-1.73,8.86,8.86,0,0,1,.27-2,9.71,9.71,0,0,1,.78-2.07c.7-1.39,1.4-2.15,2.1-2.29s1.42.5,2.15,1.95l1.08,2.13q-2,5-3,8.18m6.25-1.75a47.23,47.23,0,0,1-.76,6.23,14.17,14.17,0,0,1-1.06,3.31,2.85,2.85,0,0,1-1,1.19,1.13,1.13,0,0,1-1.16,0,2.36,2.36,0,0,1-1-1.05,5.75,5.75,0,0,1-.54-1.81,10.24,10.24,0,0,1,0-2.49,20.3,20.3,0,0,1,.91-3.94c.25-.85,1-2.91,2.21-6.2Zm-4.31-32.49L238.6,37.72a11.84,11.84,0,0,1,.93,2.21,4.31,4.31,0,0,1,.07,1.44,4.79,4.79,0,0,1-.53,1.64l-.49,1,.83,1.64,4.8-9.47-.83-1.64-.3.59a4.21,4.21,0,0,1-1,1.51.65.65,0,0,1-.76-.1,6.4,6.4,0,0,1-1.06-1.74l-12.19-24-.69,1.36a23.62,23.62,0,0,1-1.64,6.51l.82,1.62Z"/></g><polygon class="cls-3" points="164.1 202.04 165.22 204.27 247.33 42.3 246.21 40.08 164.1 202.04"/><path class="cls-4" d="M18.44,140.37a31,31,0,0,1,.06-4.26,8,8,0,0,1,.61-2.84,2.07,2.07,0,0,1,1.21-1,1.68,1.68,0,0,0,.57-.27,1.32,1.32,0,0,0,.34-.47,4.52,4.52,0,0,0,0-3.56c-.33-.65-.75-.94-1.25-.87s-1,.56-1.43,1.47a13.12,13.12,0,0,0-1.07,4.1,27.74,27.74,0,0,0-.17,5.73M7.38,179a24.42,24.42,0,0,1,.6,3,6,6,0,0,1-.05,1.55,6.71,6.71,0,0,1-.67,1.75l.84,1.64L12,179.25l-.83-1.64c-.11.19-.25.46-.42.79a3.12,3.12,0,0,1-.61.92.48.48,0,0,1-.49.08,1,1,0,0,1-.45-.49,8.91,8.91,0,0,1-.48-1.58l-2-7.9,4.71-9.29L15,163.72a8.35,8.35,0,0,1,1.29,1.49,2.67,2.67,0,0,1,.2,1.47A4,4,0,0,1,16,168c-.14.28-.28.58-.41.9l.83,1.64L21,161.45l-.83-1.63-.2.4c-.34.67-.71,1-1.1,1.05s-1-.33-1.75-1.08L1.53,145.39,0,148.4ZM2.16,151.18,10.1,159l-4,7.92ZM17.3,137.51l-1.87-3.69-.7,1.37a29.44,29.44,0,0,1-.61,3.55,18.92,18.92,0,0,1-1,2.86l.82,1.62L15.58,140l5.84,11.52a9,9,0,0,1,.84,2.1,5.08,5.08,0,0,1,0,1.51,5.94,5.94,0,0,1-.64,1.69l-.4.79.83,1.64,4.82-9.5-.83-1.64-.31.6A5.61,5.61,0,0,1,25,150a.69.69,0,0,1-.56.24.82.82,0,0,1-.57-.33,7.75,7.75,0,0,1-.87-1.47l-4.56-9m17.21-13a19.07,19.07,0,0,1-.48,3.19,11.71,11.71,0,0,1-.9,2.54c-.78,1.55-1.79,2.23-3,2q-2.13-.34-4.08-4.18A19.63,19.63,0,0,1,25.4,125a16.77,16.77,0,0,1-.3-4.82,10.51,10.51,0,0,1,1-3.81A3.25,3.25,0,0,1,27.28,115a1.54,1.54,0,0,1,1.33-.17,4.66,4.66,0,0,1,1.17.75,3.19,3.19,0,0,0,.82.55,1,1,0,0,0,.62-.07,1.13,1.13,0,0,0,.41-.47A3.57,3.57,0,0,0,32,114a3.92,3.92,0,0,0-.45-1.88,2.19,2.19,0,0,0-2.76-1.21q-1.9.45-3.51,3.62a19.08,19.08,0,0,0-1.86,6.16,24.28,24.28,0,0,0,.08,6.86,21.15,21.15,0,0,0,2,6.29c1.44,2.82,3.07,4.32,4.91,4.49s3.4-1,4.67-3.51q2.45-4.83,1.72-13.19l-1.11.16c.08,2.33.1,3.91,0,4.74M28.58,95.86,38.64,115.7a25.67,25.67,0,0,1,1.35,3,2.83,2.83,0,0,1,.1,1.16,7.68,7.68,0,0,1-.81,2.3l-.29.57.83,1.64,4.83-9.52-.83-1.64-.38.75a6,6,0,0,1-.95,1.52.46.46,0,0,1-.58.06,3.91,3.91,0,0,1-.84-1.28l-5-9.79a39.4,39.4,0,0,1,.53-5.78,14.78,14.78,0,0,1,1.19-3.94c.46-.9,1-1.4,1.47-1.52a1.48,1.48,0,0,1,1.5.67,22.76,22.76,0,0,1,1.53,2.72l3.37,6.66a12,12,0,0,1,1,2.34,3.45,3.45,0,0,1,.06,1.35,7.07,7.07,0,0,1-.78,2l-.35.7.83,1.64,4.82-9.5-.83-1.64a9,9,0,0,1-1.23,2,.54.54,0,0,1-.69.06,5.52,5.52,0,0,1-1.05-1.65L42.61,91c-.76-1.5-1.67-2.24-2.74-2.23s-2,.87-2.85,2.51a16.8,16.8,0,0,0-1.37,4.41,44.24,44.24,0,0,0-.62,6.66L28.49,89.4l-.73,1.43A24.07,24.07,0,0,1,27.24,94a30.12,30.12,0,0,1-1.11,3.38L27,99Zm12-27.95a5,5,0,0,0,.49,2.22c.32.62.69,1,1.13,1s.8-.25,1.1-.84a4.62,4.62,0,0,0,.43-2.17,5.06,5.06,0,0,0-.5-2.23c-.31-.63-.69-1-1.12-1s-.8.27-1.1.86a4.58,4.58,0,0,0-.43,2.16m5.8,11.39,5.83,11.51A11.8,11.8,0,0,1,53.14,93a3.32,3.32,0,0,1,0,1.26,6.6,6.6,0,0,1-.72,1.89l-.38.75.83,1.64,4.77-9.41-.83-1.64-.44.87a4.14,4.14,0,0,1-.82,1.25.53.53,0,0,1-.62,0,2.59,2.59,0,0,1-.73-1L46.29,73l-.68,1.35A33.79,33.79,0,0,1,45,77.76a27.29,27.29,0,0,1-1,3.1l.82,1.62Zm3.13-8.48a2.59,2.59,0,0,1,.68-.91.8.8,0,0,1,.69-.2,3.47,3.47,0,0,1,1.18.69l10.55,9,1.11-2.21-4.4-20.43a22.36,22.36,0,0,1-.47-2.63,5.67,5.67,0,0,1,.09-1.4,5.85,5.85,0,0,1,.51-1.51l-.83-1.64-3.68,7.26.83,1.64.45-.88c.32-.64.59-1,.81-1s.42.08.59.42a11.14,11.14,0,0,1,.6,2L61.79,74.1,54,67.19A4.47,4.47,0,0,1,53,66a2.2,2.2,0,0,1-.22-.79,3,3,0,0,1,.09-.92,9.64,9.64,0,0,1,.63-1.38l.26-.52-.84-1.64-4.26,8.42Zm24.3-18a11.33,11.33,0,0,1-1,3.48,4,4,0,0,1-2,2.12,2.57,2.57,0,0,1-2.53-.7,10.84,10.84,0,0,1-2.63-3.58c-.16-.31-.39-.81-.7-1.48l6.59-13a13.26,13.26,0,0,0-1.45-2.28,4.75,4.75,0,0,0-2.28-1.54,2.55,2.55,0,0,0-2.24.5,7.9,7.9,0,0,0-2.07,2.76A17.56,17.56,0,0,0,61.74,45a23.82,23.82,0,0,0,.16,6.58A22,22,0,0,0,64,58a9.53,9.53,0,0,0,3.18,4,3.52,3.52,0,0,0,3.47.19,7.15,7.15,0,0,0,2.92-3.43,14,14,0,0,0,1.14-3,22.47,22.47,0,0,0,.5-3.77,47.78,47.78,0,0,0,0-5.3l-1.11.16a38.3,38.3,0,0,1-.24,6m-9.68-2.26a20.21,20.21,0,0,1-.74-3.78,13.87,13.87,0,0,1,.14-3.09A9,9,0,0,1,64.38,41a3.64,3.64,0,0,1,1.31-1.58,1.42,1.42,0,0,1,1.42-.07,6,6,0,0,1,1.74,1.87ZM75.76,18.11A3.42,3.42,0,0,0,74,19a7.86,7.86,0,0,0-1.46,2.12,14.08,14.08,0,0,0-1.48,5.93A10.81,10.81,0,0,0,72,32.3a2.88,2.88,0,0,0,2,1.8q1.17.18,3.09-1.5l3-2.61c.87-.78,1.54-1.14,2-1.09a1.7,1.7,0,0,1,1.17,1,6.22,6.22,0,0,1,.5,3.05,8.33,8.33,0,0,1-.87,3.54,4.79,4.79,0,0,1-3.12,2.83,5.65,5.65,0,0,1-3.62-.81l-.48,2.35L80,45l.67-1.32-.52-1.79c1.38-.21,2.59-1.36,3.63-3.41a14.43,14.43,0,0,0,1.39-4.31,15.5,15.5,0,0,0,.13-4.44,10.69,10.69,0,0,0-1-3.55,3.22,3.22,0,0,0-2.08-1.93c-.81-.13-1.93.43-3.34,1.68l-2.5,2.24c-1,.9-1.75,1.33-2.19,1.31s-.8-.3-1.11-.91A5.17,5.17,0,0,1,72.73,26a7.34,7.34,0,0,1,.8-3,4,4,0,0,1,2.53-2.26,3.75,3.75,0,0,1,3.33,1l.54-2.24-3.86-4.32-.66,1.29Z"/><polygon class="cls-4" points="10.33 191.32 11.45 193.54 90.15 38.31 89.03 36.09 10.33 191.32"/><path class="cls-4" d="M76.5,167.66,72.57,152l7.94,7.77Zm12.79-5.6c-.39,0-1-.33-1.76-1.08l-15.59-14.8-1.52,3,7.38,30.55a29.65,29.65,0,0,1,.6,3,6.41,6.41,0,0,1-.05,1.54,7.14,7.14,0,0,1-.67,1.76l.83,1.64L82.4,180l-.83-1.63c-.11.19-.26.45-.42.78a3,3,0,0,1-.62.92.46.46,0,0,1-.48.09,1,1,0,0,1-.45-.49,9.91,9.91,0,0,1-.49-1.58l-2-7.9,4.71-9.29,3.53,3.57a8.43,8.43,0,0,1,1.28,1.5,2.67,2.67,0,0,1,.21,1.47,4.23,4.23,0,0,1-.49,1.35c-.14.29-.28.59-.42.91l.83,1.64,4.63-9.13-.83-1.64-.21.4c-.34.68-.7,1-1.09,1.06"/><path class="cls-4" d="M107,84.32a4.62,4.62,0,0,0,.42-2.17,5,5,0,0,0-.49-2.23c-.32-.63-.69-1-1.12-1s-.8.27-1.1.86a4.58,4.58,0,0,0-.43,2.16,4.9,4.9,0,0,0,.49,2.21c.31.63.69,1,1.12,1s.81-.26,1.11-.84"/><path class="cls-4" d="M127,82.11a15.88,15.88,0,0,1,.42,4.78,9.85,9.85,0,0,1-1,3.66c-.82,1.62-1.79,2.28-2.9,2S121,90.63,119.66,88a19.94,19.94,0,0,1-2.3-8.2,10.58,10.58,0,0,1,.91-5.31,3.62,3.62,0,0,1,1.89-2,2.2,2.2,0,0,1,2.22.61,11.65,11.65,0,0,1,2.71,3.74A22,22,0,0,1,127,82.11m-3.3-12.84a3.21,3.21,0,0,0-3.34-.36,7.51,7.51,0,0,0-3,3.49,18.57,18.57,0,0,0-1.77,6,23.46,23.46,0,0,0,.13,6.74,21.64,21.64,0,0,0,2,6.33c1.35,2.65,2.9,4.22,4.65,4.69s3.38-.76,4.88-3.73a18.27,18.27,0,0,0,1.83-6,23,23,0,0,0-.16-6.66,21.59,21.59,0,0,0-2-6.38,10.36,10.36,0,0,0-3.22-4.08"/><path class="cls-4" d="M119.26,103.66a.49.49,0,0,1-.61,0,2.47,2.47,0,0,1-.73-1L110,87l-.68,1.35c-.2,1.38-.41,2.54-.64,3.46a27.29,27.29,0,0,1-1,3.1l.82,1.62,1.61-3.17,5.83,11.49a11.64,11.64,0,0,1,.94,2.19,3.79,3.79,0,0,1,0,1.26,6.92,6.92,0,0,1-.72,1.89l-.38.76.83,1.63,4.77-9.41-.83-1.64-.44.87a3.79,3.79,0,0,1-.83,1.25"/><path class="cls-4" d="M101.16,139.29a.55.55,0,0,1-.71-.11,6.24,6.24,0,0,1-1.1-1.72L92,122.89l-3.39,7.26.83,1.64.68-1.34a3.69,3.69,0,0,1,1-1.34.61.61,0,0,1,.73,0,6,6,0,0,1,1.06,1.7l4.62,9.1a40.46,40.46,0,0,1-.62,6.22,16.37,16.37,0,0,1-1.27,4.17,3.24,3.24,0,0,1-1.33,1.55,1.27,1.27,0,0,1-1.44-.19,6.58,6.58,0,0,1-1.55-2.2l-6.38-12.58-3.38,7.26.83,1.64.86-1.69a2.13,2.13,0,0,1,.79-1,.64.64,0,0,1,.72.09,4.75,4.75,0,0,1,1,1.47l4.51,8.88a7.14,7.14,0,0,0,1.46,2,2.51,2.51,0,0,0,1.62.75,2.22,2.22,0,0,0,1.56-.63,6.67,6.67,0,0,0,1.47-2.08A17.4,17.4,0,0,0,97.78,149a49.26,49.26,0,0,0,.74-7.33l1.83,3.62,2.93-6.44-.83-1.64-.29.57a4.42,4.42,0,0,1-1,1.51"/><path class="cls-4" d="M109,122.78a13.3,13.3,0,0,1-1,3.55,2.82,2.82,0,0,1-1.69,1.55,2.45,2.45,0,0,1-2.28-.69,10.37,10.37,0,0,1-2.42-3.35,19.53,19.53,0,0,1-1.76-5,16.76,16.76,0,0,1-.28-4.79,10.7,10.7,0,0,1,1-3.88,4.1,4.1,0,0,1,1.7-1.88,1.81,1.81,0,0,1,1.82-.09,4.62,4.62,0,0,1,1.59,2l3.75,7.38a30.87,30.87,0,0,1-.43,5.15m5.23-8.45-.41.79c-.42.85-.76,1.32-1,1.42s-.53,0-.84-.41a18.36,18.36,0,0,1-1-1.92l-12-23.69-.7,1.39a37.3,37.3,0,0,1-.72,3.77,19.42,19.42,0,0,1-.92,2.76l.84,1.66L99,97l4.37,8.61a3.45,3.45,0,0,0-2.36.79A7.49,7.49,0,0,0,99,109a15.69,15.69,0,0,0-1.49,5.44,24.32,24.32,0,0,0,.28,6.7,22.39,22.39,0,0,0,2,6.39c1.36,2.67,2.88,4.22,4.59,4.65s3.11-.47,4.24-2.69a15.25,15.25,0,0,0,1.26-4,35.36,35.36,0,0,0,.47-6l1.57,3.11,3.08-6.7Z"/><polygon class="cls-4" points="80.35 191.32 81.47 193.54 134.67 88.62 133.54 86.4 80.35 191.32"/><path class="cls-4" d="M136.82,161.78l.45-.88a4.27,4.27,0,0,1,1-1.43.54.54,0,0,1,.7.05,6.69,6.69,0,0,1,1.1,1.77l9,17.79a10.72,10.72,0,0,1,1,2.36,4.69,4.69,0,0,1,0,1.63,7.8,7.8,0,0,1-.8,2.16l-.26.51.83,1.64,4.58-9-.83-1.64-.3.58a4.12,4.12,0,0,1-1.06,1.53.68.68,0,0,1-.79-.06,6.07,6.07,0,0,1-1.13-1.76l-9.78-19.29,16.45,15.59.93-1.84-8.11-32.74,10.17,20.05c.15.3.34.75.58,1.35a3.1,3.1,0,0,1,.22,1.07,4.15,4.15,0,0,1-.1,1.23A7.7,7.7,0,0,1,160,164l-.36.7.83,1.64,5-9.8-.83-1.64-.34.66a3.55,3.55,0,0,1-1,1.4.59.59,0,0,1-.72-.13,9,9,0,0,1-1.22-2l-9.11-18a8.79,8.79,0,0,1-.78-2,4,4,0,0,1-.05-1.41,7.05,7.05,0,0,1,.71-1.82l.33-.66-.83-1.64-4,7.81,7.19,29L140.1,152l-4.11,8.1ZM160.08,131a23.05,23.05,0,0,0,.13,6.73,21.64,21.64,0,0,0,2,6.33q2,4,4.65,4.7c1.75.48,3.37-.77,4.88-3.74a18.53,18.53,0,0,0,1.83-6,23.08,23.08,0,0,0-.16-6.67,21.89,21.89,0,0,0-2.05-6.38,10.32,10.32,0,0,0-3.22-4.07,3.19,3.19,0,0,0-3.34-.37,7.46,7.46,0,0,0-3,3.49,18.55,18.55,0,0,0-1.77,6m4.55-5.89a2.19,2.19,0,0,1,2.21.61,11.78,11.78,0,0,1,2.72,3.74,22,22,0,0,1,1.91,5.27,16.21,16.21,0,0,1,.42,4.78,10,10,0,0,1-1,3.67c-.82,1.61-1.78,2.27-2.9,2s-2.53-1.88-3.89-4.57a19.94,19.94,0,0,1-2.3-8.2,10.52,10.52,0,0,1,.91-5.3,3.58,3.58,0,0,1,1.89-2m6.45-11.77,5.65,11.15a17.3,17.3,0,0,1,1,2.26,3.67,3.67,0,0,1,.08,1.57,8.1,8.1,0,0,1-.82,2.11l-.24.46.83,1.64,4.81-9.48-.83-1.64-.27.53a4.8,4.8,0,0,1-1,1.57.59.59,0,0,1-.74-.07,7.12,7.12,0,0,1-1.13-1.82l-4.57-9a32.27,32.27,0,0,1,.45-5.67,14.84,14.84,0,0,1,1.2-4,3,3,0,0,1,1.32-1.53,1.16,1.16,0,0,1,1.29.24,10.33,10.33,0,0,1,1.74,2.74l3.64,7.19a10.52,10.52,0,0,1,.91,2.2,4.29,4.29,0,0,1,0,1.43,7.7,7.7,0,0,1-.79,2.06l-.26.52.83,1.63,4.79-9.45-.83-1.63a8.59,8.59,0,0,1-1.25,2.06.5.5,0,0,1-.66,0,6.15,6.15,0,0,1-1.11-1.77l-4.36-8.59a14.86,14.86,0,0,0-1.18-2,2.81,2.81,0,0,0-1.55-1.12,2,2,0,0,0-1.69.43,5.84,5.84,0,0,0-1.62,2.12,16.08,16.08,0,0,0-1.37,4.25,47.24,47.24,0,0,0-.61,7.08l-1.88-3.71-.67,1.32a34.08,34.08,0,0,1-.59,3.51,24.08,24.08,0,0,1-1,2.91l.83,1.63Zm9.86-30.77a15.67,15.67,0,0,1,.24,3.58,14.39,14.39,0,0,1-.68,3.65l.83,1.64L183,88.19l6.09,12a8.55,8.55,0,0,0,1.79,2.71,1.41,1.41,0,0,0,1.58,0,4.09,4.09,0,0,0,1.62-1.87,17.85,17.85,0,0,0,1.59-6.62l-.95-1.89a15.1,15.1,0,0,1-1.12,5.52,1.76,1.76,0,0,1-.88.92.93.93,0,0,1-1-.21,7.45,7.45,0,0,1-1.21-1.9l-6-11.78,2.77-5.46-1-2-2.77,5.46-3.37-6.64-.66,1.31a29,29,0,0,1,1.43,4.72m10.42-9.23,5.84,11.52a9,9,0,0,1,.83,2.09,4.89,4.89,0,0,1,.05,1.53,5.71,5.71,0,0,1-.64,1.68l-.4.79.83,1.64,4.82-9.5-.83-1.65-.31.61a5.69,5.69,0,0,1-.78,1.28.71.71,0,0,1-.57.24,1,1,0,0,1-.57-.32,8.7,8.7,0,0,1-.86-1.48l-4.57-9a34.64,34.64,0,0,1,.06-4.26,8,8,0,0,1,.61-2.84,2.1,2.1,0,0,1,1.21-1,1.65,1.65,0,0,0,.58-.27,1.63,1.63,0,0,0,.34-.47,3.92,3.92,0,0,0,.36-1.79,3.87,3.87,0,0,0-.36-1.77c-.33-.65-.75-.94-1.24-.87s-1,.56-1.44,1.47a13.4,13.4,0,0,0-1.07,4.1,27.76,27.76,0,0,0-.17,5.73l-1.87-3.69-.7,1.37a29.2,29.2,0,0,1-.62,3.55,17.88,17.88,0,0,1-1,2.86l.83,1.62Zm19.83-11.52a11.78,11.78,0,0,1-1.05,3.49,4,4,0,0,1-2,2.12,2.59,2.59,0,0,1-2.53-.7A11,11,0,0,1,203,63.11c-.15-.31-.39-.8-.69-1.48l6.59-13a14.12,14.12,0,0,0-1.45-2.28,4.66,4.66,0,0,0-2.28-1.53,2.54,2.54,0,0,0-2.24.49,8,8,0,0,0-2.07,2.77A17.73,17.73,0,0,0,199.12,54a23.82,23.82,0,0,0,.16,6.58,22,22,0,0,0,2.1,6.4,9.49,9.49,0,0,0,3.18,4,3.52,3.52,0,0,0,3.47.19A7.13,7.13,0,0,0,211,67.7a14.3,14.3,0,0,0,1.12-3,20.81,20.81,0,0,0,.5-3.78,45.24,45.24,0,0,0,0-5.3l-1.12.17a37.21,37.21,0,0,1-.23,6m-9.68-2.25a20.45,20.45,0,0,1-.74-3.79,13.19,13.19,0,0,1,.14-3.08,9,9,0,0,1,.85-2.68,3.7,3.7,0,0,1,1.31-1.58,1.42,1.42,0,0,1,1.42-.07,6,6,0,0,1,1.74,1.88Zm12.4-18.95a26.58,26.58,0,0,0-1.16,5.18,14.74,14.74,0,0,0,.06,3.66,9.22,9.22,0,0,0,.86,2.84c.66,1.32,1.51,1.93,2.54,1.86s2-1,2.83-2.66a17.66,17.66,0,0,0,1.45-4.34,43.66,43.66,0,0,0,.72-6.57,2.5,2.5,0,0,0,1.27,1.06,1.47,1.47,0,0,0,1.33-.33,5.28,5.28,0,0,0,1.31-1.8,17.28,17.28,0,0,0,1.15-3.21l-.87-1.7a11.54,11.54,0,0,1-.81,2.43c-.27.54-.57.84-.88.9s-.64-.13-1-.55a20.24,20.24,0,0,1-1.1-2l-3.81-7.51c-.89-1.75-1.59-2.78-2.12-3.08a2.05,2.05,0,0,0-2.37.26,9.13,9.13,0,0,0-2.43,3.25,20.07,20.07,0,0,0-1.8,5.18,17.85,17.85,0,0,0-.36,4.8,9.32,9.32,0,0,0,.83,3.43c.3.58.61.9.94.94s.61-.18.86-.67a4.67,4.67,0,0,0,0-3.47c-.37-1.19-.58-1.89-.62-2.1a6.81,6.81,0,0,1-.18-1.73,8.34,8.34,0,0,1,.26-2,9.71,9.71,0,0,1,.78-2.07c.71-1.38,1.41-2.15,2.11-2.29s1.41.51,2.15,2l1.07,2.13q-2,5-3,8.18m6.25-1.74a49.05,49.05,0,0,1-.76,6.22,14.6,14.6,0,0,1-1.07,3.31,2.66,2.66,0,0,1-1,1.19,1.13,1.13,0,0,1-1.16,0,2.39,2.39,0,0,1-1-1.06,6,6,0,0,1-.54-1.81,10.77,10.77,0,0,1,0-2.49,21.08,21.08,0,0,1,.91-3.94c.25-.85,1-2.91,2.21-6.2Zm-4.32-32.5L226.31,27a11.61,11.61,0,0,1,.92,2.21,4.34,4.34,0,0,1,.08,1.44,5.06,5.06,0,0,1-.54,1.64l-.49,1,.84,1.64,4.8-9.47-.84-1.64-.29.59a4.32,4.32,0,0,1-1,1.51.65.65,0,0,1-.76-.1A6.74,6.74,0,0,1,227.94,24L215.75,0l-.69,1.36a23.09,23.09,0,0,1-1.64,6.51l.83,1.62Z"/><polygon class="cls-4" points="151.8 191.32 152.93 193.54 235.04 31.57 233.91 29.35 151.8 191.32"/></g></g></svg>